# xmcd CD database file
#
# Track frame offsets:
#	150
#	17650
#	28220
#	38597
#	53182
#	64667
#	77450
#	97900
#	110502
#	125150
#	137520
#	155897
#	167890
#	179100
#	193260
#	214097
#	230555
#
# Disc length: 3352 seconds
#
# Revision: 0
# Processed by: cddbd v1.5.2PL0 Copyright (c) Steve Scherf et al.
# Submitted via: CDex 1.40Beta8
#
DISCID=f20d1611
DTITLE=Various Artist - Country All Stars Live
DYEAR=1900
DGENRE=Country
TTITLE0=The Night They Drove Old Dixie Down  (Tanya Tucker)
TTITLE1=Danger Of A Stranger  (Stella Parton)
TTITLE2=Let Your Love Flow  (Bellamy Brothers)
TTITLE3=Who's Gonna Fill Their Shoes  (George Jones)
TTITLE4=D-i-v-o-r-c-e  (Tammy Wynette)
TTITLE5=Rose Garden  (Lynn Anderson)
TTITLE6=Mr. Bojangles  (Nitty Gritty Dirt Band)
TTITLE7=Headache Tomorrow, Heartache Tonight  (Mickey Gilley)
TTITLE8=Cry   (Lynn Anderson)
TTITLE9=Tequila Sheila  (Bobby Bare)
TTITLE10=Wild Bull Rider  (Hoyt Axton)
TTITLE11=Believe In You  (Mel Tillis)
TTITLE12=The Race Is On  (George Jones)
TTITLE13=El Paso  (Ronny Robbins)
TTITLE14=Baby I'm Yours  (Tanya Tucker)
TTITLE15=You Need A Lady In Your Life  (Mickey Gilley)
TTITLE16=Medley - Amazing Grace*I'll Fly Away*Will The Circle Be Unbroken*I Saw The Light  (Tammy Wyneette)
EXTD=ID3G: 2
EXTT0=
EXTT1=
EXTT2=
EXTT3=
EXTT4=
EXTT5=
EXTT6=
EXTT7=
EXTT8=
EXTT9=
EXTT10=
EXTT11=
EXTT12=
EXTT13=
EXTT14=
EXTT15=
EXTT16=
PLAYORDER=
